<svg xmlns:dc="http://purl.org/dc/elements/1.1/" xmlns:cc="http://creativecommons.org/ns#" xmlns:rdf="http://www.w3.org/1999/02/22-rdf-syntax-ns#" xmlns:svg="http://www.w3.org/2000/svg" xmlns="http://www.w3.org/2000/svg" xmlns:sodipodi="http://sodipodi.sourceforge.net/DTD/sodipodi-0.dtd" xmlns:inkscape="http://www.inkscape.org/namespaces/inkscape" viewBox="0 0 100 100" version="1.1" x="0px" y="0px"><g transform="translate(0,-952.36216)"><path d="m 52.548158,986.40005 c -3.597336,-0.14871 -6.745005,2.39846 -7.79423,5.84567 -0.599579,1.94874 2.398226,2.69804 2.847893,0.7492 0.59958,-2.09821 2.698002,-3.59733 4.946337,-3.59733 2.248335,0 4.196887,1.49912 4.796445,3.74746 0.59958,2.24831 -0.449667,4.49671 -2.54811,5.69551 0,0 -0.149913,0 -0.149913,0 l -12.140951,0 c -1.648777,0 -2.997756,1.34904 -2.997756,2.99834 l 0,13.4893 c 0,1.6492 1.348979,2.9982 2.997756,2.9982 l 14.988837,0 c 1.648784,0 2.997784,-1.349 2.997784,-2.9982 l 0,-13.4893 c 0,-1.0495 -0.749449,-2.09894 -1.648783,-2.69804 1.349001,-1.7987 1.948559,-4.1971 1.349001,-6.5956 -0.749443,-3.59734 -3.897112,-6.14521 -7.644339,-6.14521 z M 42.50565,1001.8389 c 0,0 -0.149912,0 0,0 l 14.988844,0 0,0 0,13.4893 0,0 -14.988844,0 c 0,0 0,0 0,0 l 0,-13.4893 z" style="" fill="#000000" fill-opacity="1" fill-rule="nonzero" stroke="none"></path><path d="m 50.149932,970.36216 c -0.449667,0 -0.899334,0.29742 -1.19911,0.74921 -2.698002,3.89758 -11.391466,7.3448 -21.284075,7.3448 -0.149913,0 -0.149913,0 -0.149913,0 0,0 -0.149912,0 -0.149912,0 -0.749422,0 -1.34898,0.44612 -1.498871,1.19887 0,0 -1.498878,6.74501 -2.248314,14.83902 -0.749442,8.24414 -0.899327,17.68644 2.398205,23.98184 2.398205,4.4966 8.243833,8.2441 13.48991,11.0922 4.946258,2.698 8.993261,4.3466 9.592812,4.4967 0,0 0,0 0,0 0.299754,0.1487 0.599579,0.2974 0.899334,0.2974 0.299754,0 0.599579,-0.1487 0.899334,-0.2974 l 0,0 c 0.449667,-0.1487 4.646561,-1.7987 9.443006,-4.4967 5.245914,-2.8481 11.091582,-6.5956 13.639702,-11.0922 3.29755,-6.2954 3.14767,-15.7377 2.39822,-23.98184 -0.74944,-8.09401 -2.24834,-14.83902 -2.24834,-14.83902 -0.14991,-0.74921 -0.89933,-1.19887 -1.64877,-1.19887 0,0 0,0 0,0 -9.592695,0 -17.986483,-3.2978 -20.834369,-7.04455 -0.299754,-0.60192 -0.899333,-1.04946 -1.498892,-1.04946 z m 0,3.89688 c 4.196894,4.49667 12.290899,6.89513 21.134148,7.19467 0.29975,1.349 1.349,6.44546 2.09844,13.33985 0.74945,7.94464 0.59958,17.23754 -2.09844,22.18384 -1.79867,3.4472 -7.344562,7.1947 -12.290701,10.0421 -4.646553,2.3985 -8.243889,3.8976 -8.993339,4.1972 -0.749442,-0.2975 -4.496669,-1.7987 -8.993275,-4.1972 -5.096185,-2.8474 -10.492153,-6.5949 -12.2908,-10.0421 -2.69798,-4.9463 -2.847872,-14.2392 -2.098422,-22.18384 0.599579,-6.89439 1.648755,-11.99085 1.948538,-13.33985 9.143166,-0.29742 17.386957,-2.698 21.583851,-7.19467 z" style="" fill="#000000" fill-opacity="1" fill-rule="nonzero" stroke="none"></path></g></svg>