<svg xmlns="http://www.w3.org/2000/svg" xmlns:xlink="http://www.w3.org/1999/xlink" version="1.1" x="0px" y="0px" viewBox="0 0 90 90" enable-background="new 0 0 90 90" xml:space="preserve"><g><g><g><path d="M22.444,14.94c0,1.234-1.052,2.238-2.345,2.238l0,0c-1.295,0-2.346-1.004-2.346-2.238V9.774     c0-1.234,1.051-2.238,2.346-2.238l0,0c1.293,0,2.345,1.003,2.345,2.238V14.94z"></path></g></g><g><g><path d="M47.352,14.94c0,1.234-1.051,2.238-2.344,2.238l0,0c-1.295,0-2.345-1.004-2.345-2.238V9.774     c0-1.234,1.05-2.238,2.345-2.238l0,0c1.293,0,2.344,1.003,2.344,2.238V14.94z"></path></g></g><g><g><path d="M72.357,15.008c0,1.234-1.051,2.238-2.346,2.238l0,0c-1.293,0-2.345-1.004-2.345-2.238V9.842     c0-1.234,1.052-2.238,2.345-2.238l0,0c1.295,0,2.346,1.004,2.346,2.238V15.008z"></path></g></g><g><rect x="15.04" y="33.021" width="12.802" height="9.104"></rect></g><g><rect x="31.717" y="33.021" width="12.803" height="9.104"></rect></g><g><rect x="47.763" y="33.021" width="12.802" height="9.104"></rect></g><g><rect x="64.44" y="33.021" width="12.801" height="9.104"></rect></g><g><rect x="15.04" y="46.416" width="12.802" height="9.104"></rect></g><g><rect x="31.717" y="46.416" width="12.803" height="9.104"></rect></g><g><rect x="47.763" y="46.416" width="12.802" height="9.104"></rect></g><g><rect x="64.44" y="46.416" width="12.801" height="9.104"></rect></g><g><rect x="15.04" y="60.39" width="12.802" height="9.104"></rect></g><g><rect x="31.717" y="60.39" width="12.803" height="9.104"></rect></g><g><rect x="47.763" y="60.39" width="12.802" height="9.104"></rect></g><g><path d="M77.783,70.035H63.899V59.849h13.884V70.035z M64.981,68.953h11.721v-8.022H64.981V68.953z"></path></g><g><path d="M72.866,13.014v2.308c0,1.561-1.318,2.831-2.941,2.831c-1.622,0-2.941-1.271-2.941-2.831v-2.314L47.94,12.991v2.331    c0,1.561-1.318,2.831-2.941,2.831c-1.623,0-2.941-1.271-2.941-2.831v-2.335l-19.061-0.02v2.354c0,1.561-1.319,2.831-2.941,2.831    c-1.623,0-2.941-1.271-2.941-2.831v-2.36C3.066,12.941,0.541,12.912,0.57,23.291v33.175c0,24.201-0.57,25.97,8.879,25.964h65.862    c14.338,0,14.147,0.632,14.147-11.626V21.939C89.459,12.933,87.124,13.014,72.866,13.014z M83.194,67.98    c0,8.491,0.164,8.052-12.151,8.052H14.459c-8.502,0.346-7.625-2.935-7.625-17.984V35.068c0-8.104,2.163-10.154,14.482-10.154    l47.553,0.036c12.316,0,14.326,2.93,14.326,9.18V67.98z"></path></g></g></svg>