<svg xmlns="http://www.w3.org/2000/svg" xmlns:xlink="http://www.w3.org/1999/xlink" version="1.1" viewBox="0 0 60 60" x="0px" y="0px"><path d="M59.69 29.668c-0.1-0.5-0.3-1-0.4-1.6-0.4-1.6-0.9-3.2-1.3-4.7-0.2-0.6-0.3-1.2-0.5-1.7-0.5-1.7-1-3-1.4-3.9-0.3-0.7-0.7-1.5-1.1-2.4-0.3-0.5-0.5-1-0.9-1.5-0.6-0.9-1.2-1.9-1.8-2.8-0.2-0.3-0.4-0.6-0.6-0.9-0.1-0.2-0.2-0.3-0.2-0.3-0.6-0.9-1.8-1.1-2.8-0.6l-3.3 2.1c-0.9 0.6-1.2 1.8-0.6 2.8 0 0.1-1.4-0.2-2.3-0.4-2-0.6-4-1-5.9-1.2-2.8-0.4-5.3-0.3-7.2 0.2l-13.9 0.9c0.2-0.8-0.1-1.7-0.8-2.2l-3.3-2.1c-0.9-0.6-2.2-0.3-2.8 0.6 0 0-0.1 0.2-0.2 0.3-0.2 0.3-0.4 0.5-0.6 0.9-0.6 0.9-1.2 1.9-1.8 2.8-0.3 0.5-0.6 1-0.9 1.5-0.5 0.9-0.9 1.7-1.1 2.4-0.4 0.9-0.8 2.3-1.4 3.9-0.2 0.5-0.3 1.1-0.5 1.7-0.4 1.5-0.9 3.1-1.3 4.7-0.2 0.6-0.3 1.1-0.4 1.6-0.1 0.3-0.1 0.5-0.2 0.6-0.2 0.9 0.1 2 0.8 2.6l2 1.8c0.9 0.8 2.3 0.5 2.7-0.7 0.6 0.2 1.1 0.4 1.7 0.6 0.3 0.1 0.6 0.2 0.9 0.3 0.1 0 0.6 0.2 0.7 0.2-0.7 1.3-0.4 3 0.8 4 0.7 0.5 1.5 0.7 2.3 0.6-0.4 1.2 0 2.5 1 3.3s2.4 0.8 3.4 0.2c0.1 0.8 0.5 1.6 1.1 2.1 0.8 0.6 1.9 0.8 2.8 0.5-0.1 1 0.3 2 1.1 2.6 1.3 1 3.2 0.8 4.2-0.5l0.6-0.7c0.2 0.2 0.3 0.3 0.7 0.7 1.2 1.2 1.2 1.2 1.5 1.6 1.3 1.4 3.6 1.4 4.9 0.1 0.7-0.7 1.1-1.6 1.1-2.5 1.3 1.1 3.3 1.1 4.6-0.2 0.7-0.7 1.1-1.6 1.1-2.5 1.3 1.1 3.3 1.1 4.6-0.2 0.8-0.8 1.1-1.8 1-2.8 1.3 0.6 2.9 0.4 4-0.6s1.3-2.6 0.8-3.9l3.5-2.6c0.4 1.2 1.7 1.5 2.7 0.7l2-1.8c1.1-1 1.4-2.1 1.1-3 0-0.1-0.1-0.3-0.2-0.6zM42.090 15.768c1.1 0.3 2.2 0.6 3.2 1 0.3 0.1 1.3 0.2 1.3 0.2 0.5 0.7 0.9 1.5 1.4 2.2 0.2 0.3 0.4 0.6 0.6 1 0.8 1.3 1.4 2.4 1.8 3.3 0.4 0.8 0.9 1.9 1.4 3.3 0.2 0.4 0.3 0.8 0.5 1.3 0.5 1.3 1 2.7 1.5 4.1l-3.8 2.8c-0.1 0-0.1-0.1-0.2-0.1-0.6-0.5-1.3-1.1-2-1.7-2.1-1.8-4.2-3.5-6.2-5.2-0.3-0.2-0.6-0.5-0.8-0.7-5.9-4.7-9.1-7.1-10.3-7-0.9 0-1.9 0.6-3.1 1.6-0.4 0.4-0.8 0.7-1.3 1.2-0.6 0.6-1.1 1.2-1.6 1.8-0.2 0.2-0.4 0.4-0.5 0.6-0.1 0.1-0.2 0.2-0.2 0.2-0.3 0.4-1 0.5-1.4 0.1l-0.8-0.6c-0.5-0.4-0.6-1.2-0.3-1.7 0.1-0.1 0.1-0.3 0.2-0.4 0.2-0.3 0.4-0.7 0.6-1 0.7-1.1 1.5-2.2 2.4-3.2 1.8-2 3.7-3.5 5.8-4.1 1.5-0.6 3.7-0.6 6.2-0.2 1.8 0.2 3.7 0.6 5.6 1.2zM4.19 32.868v0l-1.6-1.4c-0.1-0.1-0.2-0.5-0.2-0.6s0.1-0.3 0.2-0.6c0.1-0.5 0.3-1 0.4-1.5 0.4-1.6 0.9-3.2 1.3-4.7 0.2-0.6 0.3-1.1 0.5-1.7 0.5-1.6 0.9-2.9 1.3-3.7 0.3-0.6 0.6-1.4 1.1-2.2 0.3-0.5 0.5-0.9 0.8-1.4 0.5-0.9 1.1-1.8 1.7-2.7 0.2-0.3 0.4-0.6 0.6-0.8 0.1-0.1 0.2-0.3 0.2-0.3v0l3.3 2.1c-0.1 0-0.1 0.2-0.3 0.4-0.2 0.3-0.5 0.7-0.7 1.1-0.7 1.1-1.5 2.3-2.2 3.5-0.2 0.3-0.4 0.7-0.6 1-0.8 1.3-1.4 2.5-1.9 3.4-0.4 0.9-0.9 2-1.5 3.5-0.2 0.4-0.3 0.8-0.5 1.3-0.5 1.3-1 2.8-1.5 4.2-0.1 0.2-0.2 0.7-0.4 1.1v0zM11.29 37.568c-0.4-0.3-0.5-1-0.2-1.4l1.2-1.6c0.3-0.4 1-0.5 1.4-0.2s0.5 1 0.2 1.4l-1.2 1.6c-0.4 0.4-1 0.5-1.4 0.2v0zM14.59 41.368c-0.4-0.3-0.5-1-0.2-1.4l2.5-3.2c0.3-0.4 1-0.5 1.4-0.2s0.5 1 0.2 1.4l-2.5 3.2c-0.4 0.5-1 0.6-1.4 0.2v0zM19.090 43.668c-0.4-0.3-0.5-1-0.2-1.4l2.5-3.2c0.3-0.4 1-0.5 1.4-0.2s0.5 1 0.2 1.4l-2.5 3.2c-0.3 0.5-0.9 0.6-1.4 0.2v0zM25.69 44.968l-1.2 1.6c-0.3 0.4-1 0.5-1.4 0.2s-0.5-1-0.2-1.4l1.2-1.6c0.3-0.4 1-0.5 1.4-0.2 0.5 0.4 0.5 1 0.2 1.4v0zM46.69 39.168l-9.8-8.7-0.5-0.4-0.6 0.3c-0.6 0.3-0.7 0.8-0.5 1.3 0 0.1 0.1 0.2 0.2 0.3s0.2 0.2 0.3 0.4 0.5 0.6 0.9 1 1.7 1.7 2.9 2.9l0.2 0.2c0.9 0.9 1.9 1.9 2.9 2.9 0.3 0.3 0.7 0.7 0.9 0.9s0.3 0.3 0.4 0.4c0.6 0.6 0.5 1.5-0.1 2.1s-1.5 0.6-2.1 0l-8.8-7.6-0.5-0.4-0.6 0.3c-0.5 0.2-0.6 0.7-0.6 1.1 0 0.1 0.1 0.2 0.1 0.4 0.1 0.1 0.1 0.2 0.3 0.4s0.4 0.5 0.7 0.8c0.6 0.6 1.3 1.4 2.3 2.3 0.1 0.1 0.1 0.1 0.2 0.2 0.7 0.7 1.5 1.5 2.3 2.3 0.3 0.3 0.5 0.5 0.8 0.7 0.1 0.1 0.2 0.2 0.3 0.3 0.5 0.6 0.5 1.5-0.1 2.1s-1.5 0.6-2.1 0l-7.1-6.3-0.5-0.5-0.6 0.3c-0.4 0.2-0.6 0.6-0.5 0.9 0 0.2 0 0.3 0.1 0.4s0.1 0.2 0.2 0.4c0.1 0.2 0.3 0.4 0.6 0.7 0.4 0.5 1 1.1 1.7 1.9l0.2 0.2c0.5 0.6 1.1 1.2 1.7 1.8 0.2 0.2 0.4 0.4 0.6 0.6 0.1 0.1 0.2 0.2 0.2 0.2 0.6 0.6 0.5 1.5-0.1 2.1s-1.5 0.6-2.1 0c-0.4-0.4-0.4-0.4-1.5-1.6-0.5-0.6-0.6-0.6-1-1 0.4-1.2 0.1-2.5-1-3.4-0.6-0.5-1.4-0.7-2.1-0.6 0.9-1.3 0.6-3.1-0.6-4-1-0.8-2.4-0.8-3.4-0.2-0.1-0.8-0.5-1.6-1.1-2.1-1-0.8-2.4-0.8-3.4-0.2-0.1-0.8-0.4-1.6-1.1-2.1-1.3-1-3.2-0.8-4.2 0.5l-0.1 0.2c-0.2-0.1-0.5-0.2-0.8-0.3-0.1 0-0.6-0.2-0.7-0.2-0.3-0.1-0.5-0.2-0.8-0.2-0.5-0.2-1.1-0.4-1.7-0.7 0.5-1.4 1-2.8 1.4-4.1 0.2-0.4 0.3-0.9 0.5-1.3 0.5-1.4 1-2.5 1.4-3.3 0.4-0.9 1-2 1.8-3.3 0.2-0.3 0.4-0.6 0.6-1 0.7-1.1 1.4-2.3 2.1-3.4l11.1-0.8c-0.9 0.7-1.8 1.5-2.6 2.5-1 1.1-1.8 2.2-2.6 3.4-0.3 0.4-0.5 0.8-0.7 1.1-0.1 0.2-0.2 0.4-0.2 0.4-0.8 1.3-0.4 3.2 0.8 4.2l0.8 0.6c1.3 1 3.2 0.9 4.2-0.4 0.1-0.2 0.4-0.4 0.7-0.8 0.5-0.6 1-1.2 1.6-1.7l1.1-1.1c0.8-0.7 1.5-1.1 1.8-1.1 0.4 0 4.2 2.7 9 6.6 0.3 0.2 0.6 0.4 0.8 0.7 2 1.6 4.1 3.4 6.2 5.1 0.7 0.6 2.2 2.5 2.2 2.5 0.4 0.4 0.4 1.3-0.2 1.9s-1.5 0.6-2.1 0zM57.79 31.468l-1.6 1.5c-0.1-0.4-0.3-0.9-0.5-1.4-0.5-1.4-1-2.9-1.5-4.2-0.2-0.4-0.3-0.9-0.5-1.3-0.6-1.5-1.1-2.6-1.5-3.5-0.5-1-1.1-2.1-1.9-3.4-0.2-0.3-0.4-0.6-0.6-1-0.7-1.1-1.4-2.3-2.2-3.5-0.3-0.4-0.5-0.8-0.7-1.1-0.1-0.2-0.2-0.3-0.3-0.4l3.3-2.1c0 0.1 0.1 0.2 0.2 0.3 0.2 0.2 0.4 0.5 0.6 0.8 0.6 0.9 1.2 1.8 1.7 2.7 0.3 0.5 0.6 1 0.8 1.4 0.4 0.8 0.8 1.5 1.1 2.2 0.4 0.9 0.8 2.1 1.3 3.7 0.2 0.5 0.3 1.1 0.5 1.7 0.4 1.5 0.9 3.1 1.3 4.7 0.2 0.6 0.3 1.1 0.4 1.5 0.1 0.3 0.1 0.5 0.2 0.6 0.2 0.3 0.1 0.6-0.1 0.8v0z" fill="#000000"></path></svg>