<svg xmlns="http://www.w3.org/2000/svg" xmlns:xlink="http://www.w3.org/1999/xlink" version="1.1" x="0px" y="0px" viewBox="0 0 100 100" enable-background="new 0 0 100 100" xml:space="preserve"><path d="M97.4,69.9l0,5c0,0.9-0.8,1.7-1.7,1.7H80.3c-0.9,0-1.7-0.8-1.7-1.7s0.8-1.7,1.7-1.7H94l0-3.3c0-0.6-0.2-1.1-0.7-1.4  c-4.4-3.6-9.2-6-10.1-6.5c-0.7-0.3-1.1-1.1-1.1-1.8v-7.1c0-0.6,0.3-1.1,0.8-1.4c0.4-0.3,0.7-0.8,0.7-1.3V43c0-2.7-2.2-4.9-4.9-4.9  h-1.6c-2.7,0-4.9,2.2-4.9,4.9v7.3c0,0.5,0.3,1,0.7,1.3c0.5,0.3,0.8,0.8,0.8,1.4v3.4c0,0.9-0.8,1.7-1.7,1.7s-1.7-0.8-1.7-1.7v-2.6  c-0.9-0.9-1.5-2.2-1.5-3.5V43c0-4.6,3.7-8.3,8.3-8.3h1.6c4.6,0,8.3,3.7,8.3,8.3v7.3c0,1.3-0.5,2.6-1.5,3.5v5.4c1.8,0.9,6,3.3,10,6.5  C96.7,66.8,97.4,68.3,97.4,69.9z M21.3,38.1h1.6c2.7,0,4.9,2.2,4.9,4.9v7.3c0,0.5-0.3,1-0.7,1.3c-0.5,0.3-0.8,0.8-0.8,1.4v3.5  c0,0.9,0.8,1.7,1.7,1.7c0.9,0,1.7-0.8,1.7-1.7v-2.7c0.9-0.9,1.5-2.2,1.5-3.5V43c0-4.6-3.7-8.3-8.3-8.3h-1.6c-4.6,0-8.3,3.7-8.3,8.3  v7.3c0,1.3,0.5,2.6,1.5,3.5v5.4c-1.8,0.9-6,3.3-10,6.5c-1.2,1-1.9,2.5-1.9,4.1v5c0,0.9,0.8,1.7,1.7,1.7h15.6c0.9,0,1.7-0.8,1.7-1.7  s-0.8-1.7-1.7-1.7H6v-3.3c0-0.6,0.2-1.1,0.7-1.4c4.4-3.6,9.2-6,10.1-6.5c0.7-0.3,1.1-1.1,1.1-1.8v-7.1c0-0.6-0.3-1.1-0.8-1.4  c-0.4-0.3-0.7-0.8-0.7-1.3V43C16.4,40.3,18.6,38.1,21.3,38.1z M72.5,63.5c-5.3-4.3-10.9-7.4-13.1-8.5v-7.5c1.2-1.1,1.9-2.7,1.9-4.4  v-9.5c0-5.6-4.6-10.2-10.2-10.2h-2c-5.6,0-10.2,4.6-10.2,10.2v9.5c0,1.7,0.7,3.3,1.9,4.4V55c-2.2,1.1-7.8,4.2-13.1,8.5  c-1.5,1.2-2.3,3-2.3,4.9v6.5c0,0.9,0.8,1.7,1.7,1.7s1.7-0.8,1.7-1.7v-6.5c0-0.9,0.4-1.7,1-2.2c5.7-4.7,12-7.9,13.2-8.4  c0.7-0.4,1.2-1.1,1.2-1.9v-9.1c0-0.6-0.3-1.1-0.8-1.4c-0.7-0.5-1.1-1.3-1.1-2.1v-9.5c0-3.8,3.1-6.8,6.8-6.8h2c3.8,0,6.8,3.1,6.8,6.8  v9.5c0,0.9-0.4,1.7-1.1,2.1c-0.5,0.3-0.8,0.8-0.8,1.4v9.1c0,0.8,0.5,1.6,1.2,1.9c1.2,0.6,7.4,3.7,13.2,8.4c0.7,0.5,1,1.4,1,2.2v6.5  c0,0.9,0.8,1.7,1.7,1.7c0.9,0,1.7-0.8,1.7-1.7v-6.5C74.8,66.5,74,64.7,72.5,63.5z"></path></svg>