<svg xmlns="http://www.w3.org/2000/svg" xmlns:xlink="http://www.w3.org/1999/xlink" version="1.1" x="0px" y="0px" viewBox="0 0 589.3 688.1" enable-background="new 0 0 589.3 688.1" xml:space="preserve"><path d="M579.3,249.9h-97.4c-5.5,0-10,4.5-10,10v418.2c0,5.5,4.5,10,10,10h97.4c5.5,0,10-4.5,10-10V259.9  C589.3,254.4,584.8,249.9,579.3,249.9z"></path><path d="M421.9,349.9h-97.4c-5.5,0-10,4.5-10,10v318.2c0,5.5,4.5,10,10,10h97.4c5.5,0,10-4.5,10-10V359.9  C431.9,354.4,427.4,349.9,421.9,349.9z"></path><path d="M264.5,449.9h-97.4c-5.5,0-10,4.5-10,10v218.2c0,5.5,4.5,10,10,10h97.4c5.5,0,10-4.5,10-10V459.9  C274.5,454.4,270,449.9,264.5,449.9z"></path><path d="M107.1,549.9H9.7c-5.5,0-10,4.5-10,10v118.2c0,5.5,4.5,10,10,10h97.4c5.5,0,10-4.5,10-10V559.9  C117.1,554.4,112.6,549.9,107.1,549.9z"></path><circle cx="58.4" cy="146" r="58.7"></circle><circle cx="215.4" cy="243" r="58.7"></circle><circle cx="373.4" cy="59" r="58.7"></circle><circle cx="530.4" cy="156" r="58.7"></circle><line fill="none" stroke="#000000" stroke-width="30" stroke-miterlimit="10" x1="58.4" y1="146" x2="215.4" y2="243"></line><line fill="none" stroke="#000000" stroke-width="30" stroke-miterlimit="10" x1="215.4" y1="243" x2="373.4" y2="59"></line><line fill="none" stroke="#000000" stroke-width="30" stroke-miterlimit="10" x1="373.4" y1="59" x2="530.4" y2="156"></line></svg>