<svg xmlns="http://www.w3.org/2000/svg" xmlns:xlink="http://www.w3.org/1999/xlink" version="1.1" x="0px" y="0px" viewBox="0 0 48 48" enable-background="new 0 0 48 48" xml:space="preserve"><g><path d="M41.709,21.398H6.518c-0.111,0-0.222-0.019-0.327-0.055c-1.676-0.58-2.77-1.609-3.25-3.059   c-1.167-3.527,1.994-8.226,2.129-8.424C11.407,1.702,18.699,0,23.707,0c9.792,0,18.313,6.301,20.592,12.139   c1.298,3.327,1.412,5.857,0.34,7.52c-0.834,1.295-2.2,1.702-2.876,1.739C41.745,21.397,41.727,21.398,41.709,21.398z M6.693,19.398   h34.97c0.139-0.017,0.868-0.138,1.311-0.849c0.666-1.068,0.475-3.087-0.538-5.684C40.388,7.618,32.373,2,23.707,2   c-4.561,0-11.216,1.568-17.02,9.037c-0.728,1.076-2.559,4.473-1.846,6.621C5.105,18.455,5.712,19.025,6.693,19.398z"></path><path d="M40.232,48H7.815c-2.706,0-4.907-3.074-4.907-6.854v-0.658c0-0.553,0.448-1,1-1h40.23c0.553,0,1,0.447,1,1v0.658   C45.139,44.926,42.938,48,40.232,48z M4.916,41.488C5.029,43.929,6.335,46,7.815,46h32.417c1.479,0,2.785-2.071,2.898-4.512H4.916z   "></path><path d="M24.45,30.56c-1.852,0-3.711-0.672-5.532-2c-1.741-1.271-3.119-1.846-4.469-1.864l-0.106-0.002   c-0.752-0.01-1.237-0.008-1.639,0.269c-0.204,0.141-0.416,0.347-0.64,0.565c-0.251,0.246-0.512,0.5-0.82,0.724   c-2.597,1.882-6.61,3.095-10.99-1.796c-0.368-0.411-0.333-1.044,0.078-1.412c0.413-0.369,1.043-0.333,1.412,0.078   c2.756,3.079,5.48,3.571,8.326,1.511c0.19-0.138,0.388-0.331,0.597-0.535c0.274-0.268,0.558-0.545,0.901-0.781   c0.949-0.655,1.983-0.635,2.811-0.622l0.101,0.002c2.291,0.032,4.205,1.219,5.616,2.249c1.559,1.137,3.122,1.679,4.61,1.609   c1.138-0.052,2.408-0.889,3.637-1.697c0.69-0.454,1.405-0.925,2.126-1.279c1.739-0.853,3.422-0.751,4.867,0.288   c0.355,0.256,0.711,0.534,1.069,0.816c0.754,0.592,1.534,1.205,2.287,1.554c1.255,0.579,2.833,0.194,4.223-1.033   c0.273-0.241,0.517-0.486,0.748-0.719c0.852-0.854,1.732-1.738,3.307-1.787c0.538-0.048,1.014,0.415,1.03,0.968   c0.018,0.552-0.415,1.014-0.968,1.03c-0.747,0.024-1.161,0.407-1.952,1.201c-0.26,0.261-0.534,0.534-0.841,0.806   c-2.004,1.77-4.391,2.271-6.387,1.349c-0.965-0.446-1.838-1.133-2.683-1.796c-0.337-0.264-0.67-0.526-1.003-0.766   c-0.844-0.608-1.739-0.644-2.816-0.116c-0.608,0.299-1.239,0.715-1.908,1.155c-1.454,0.957-2.958,1.947-4.645,2.024   C24.683,30.557,24.566,30.56,24.45,30.56z"></path><path d="M46.277,35.615H1.77c-0.552,0-1-0.447-1-1s0.448-1,1-1h44.507c0.553,0,1,0.447,1,1S46.83,35.615,46.277,35.615z"></path></g></svg>