<svg xmlns="http://www.w3.org/2000/svg" xmlns:xlink="http://www.w3.org/1999/xlink" version="1.1" x="0px" y="0px" viewBox="0 0 100 100" enable-background="new 0 0 100 100" xml:space="preserve"><g><path d="M31.7,37H15.1c-2.8,0-5.1,2.3-5.1,5.1V64c0,2.8,2.3,5.1,5.1,5.1h1.3v16.6h2.5V66.5h-3.8c-1.4,0-2.5-1.1-2.5-2.5V42.1   c0-1.4,1.1-2.5,2.5-2.5h16.7c1.4,0,2.5,1.1,2.5,2.5V64c0,1.4-1.1,2.5-2.5,2.5h-4v19.1h2.5V69.1h1.5c2.8,0,5.1-2.3,5.1-5.1V42.1   C36.8,39.3,34.6,37,31.7,37z"></path><path d="M23.4,32.9c5.4,0,9.7-4.4,9.7-9.7s-4.4-9.7-9.7-9.7s-9.7,4.4-9.7,9.7S18.1,32.9,23.4,32.9z M23.4,16c3.9,0,7.2,3.2,7.2,7.2   s-3.2,7.2-7.2,7.2s-7.2-3.2-7.2-7.2S19.5,16,23.4,16z"></path><path d="M89.9,13.5H35.6V16h48.6v39.9c0,1.4-1.1,2.5-2.5,2.5H42.1V61h39.5c2.8,0,5.1-2.3,5.1-5.1V16h3.2V13.5z"></path><polygon points="55.7,65.2 53.2,65.2 53.2,71 39.4,84.7 41.2,86.5 53.2,74.6 53.2,86.2 55.7,86.2 55.7,74.6 67.7,86.5 69.5,84.7    55.7,71  "></polygon></g></svg>