<svg xmlns="http://www.w3.org/2000/svg" xmlns:xlink="http://www.w3.org/1999/xlink" version="1.1" x="0px" y="0px" viewBox="0 0 100 100" enable-background="new 0 0 100 100" xml:space="preserve"><path fill-rule="evenodd" clip-rule="evenodd" d="M65.5,9C52.1,3.5,36.1,6.2,25.2,17c2.1,2,4.1,4,6.1,6.1  c8.4-8.4,20.7-10.5,30.9-6.3c-0.5,1.4-1.1,2.7-1.6,4c4-1.5,8.8-1.9,14-0.8c-1.2-5.1-3.7-10.4-7.5-15C66.5,6.4,66,7.7,65.5,9z"></path><path fill-rule="evenodd" clip-rule="evenodd" d="M68.5,77.7c-8.4,8.4-20.7,10.5-30.9,6.3c0.5-1.4,1.1-2.7,1.6-4  c-4,1.5-8.8,1.9-14,0.8c1.2,5.1,3.7,10.4,7.5,15c0.5-1.3,1.1-2.6,1.6-3.9c13.4,5.4,29.3,2.8,40.2-8.1C72.5,81.8,70.5,79.8,68.5,77.7  z"></path><path fill-rule="evenodd" clip-rule="evenodd" d="M16.3,38.1c1.4,0.5,2.7,1.1,4,1.6c-1.5-4-1.9-8.8-0.8-14c-5.1,1.2-10.4,3.7-15,7.5  c1.3,0.5,2.6,1.1,3.9,1.6C3,48.2,5.7,64.2,16.5,75.1c2-2.1,4-4.1,6.1-6.1C14.2,60.7,12.1,48.4,16.3,38.1z"></path><path fill-rule="evenodd" clip-rule="evenodd" d="M95.3,67.6C94,67,92.7,66.5,91.4,66c5.4-13.4,2.8-29.3-8.1-40.2  c-2,2.1-4,4.1-6.1,6.1c8.4,8.4,10.5,20.7,6.3,30.9c-1.4-0.5-2.7-1.1-4-1.6c1.5,4,1.9,8.8,0.8,14C85.4,73.9,90.7,71.4,95.3,67.6z"></path></svg>