<svg xmlns="http://www.w3.org/2000/svg" xmlns:xlink="http://www.w3.org/1999/xlink" version="1.1" x="0px" y="0px" viewBox="0 0 40 40" enable-background="new 0 0 40 40" xml:space="preserve"><path d="M-25.844-10C-32.511-10-39-10-39-10s-6.489,0-13.156,0C-59.979-10-67.8-3.423-67.8,4.134c0,6.666,0,37.6,0,37.6h4.977V50  h8.621v-8.267H-39h15.202V50h8.621v-8.267h4.977c0,0,0-30.934,0-37.6C-10.2-3.423-18.021-10-25.844-10z M-52.29-7.6H-39h13.289  v4.133H-39h-13.29V-7.6z M-58.733,30.623c-2.259,0-4.09-1.831-4.09-4.09c0-2.258,1.831-4.09,4.09-4.09c2.258,0,4.09,1.832,4.09,4.09  C-54.644,28.792-56.476,30.623-58.733,30.623z M-35.798,18c0-2.892,2.352-5.244,5.243-5.244s5.244,2.353,5.244,5.244H-35.798z   M-19.267,30.623c-2.259,0-4.09-1.831-4.09-4.09c0-2.258,1.831-4.09,4.09-4.09c2.258,0,4.09,1.832,4.09,4.09  C-15.177,28.792-17.009,30.623-19.267,30.623z M-15.177,18h-8c0-4.068-3.309-7.377-7.378-7.377c-4.068,0-7.377,3.309-7.377,7.377  H-39h-23.823c0,0,0-8.4,0-11.866c0-3.467,3.691-7.467,8.18-7.467c4.487,0,15.644,0,15.644,0s11.156,0,15.644,0s8.18,4,8.18,7.467  C-15.177,9.6-15.177,18-15.177,18z"></path><path d="M28.771,0C24.326,0,20,0,20,0s-4.326,0-8.771,0C6.014,0,0.8,4.385,0.8,9.422c0,4.444,0,25.067,0,25.067h3.317V40h5.748  v-5.511H20h10.135V40h5.748v-5.511H39.2c0,0,0-20.623,0-25.067C39.2,4.385,33.986,0,28.771,0z M11.14,1.6H20h8.859v2.755H20h-8.86  V1.6z M6.844,27.082c-1.506,0-2.727-1.221-2.727-2.727c0-1.505,1.221-2.727,2.727-2.727c1.505,0,2.727,1.221,2.727,2.727  S8.35,27.082,6.844,27.082z M22.135,18.667c0-1.928,1.568-3.496,3.496-3.496s3.496,1.568,3.496,3.496H22.135z M33.156,27.082  c-1.506,0-2.727-1.221-2.727-2.727c0-1.505,1.221-2.727,2.727-2.727c1.505,0,2.727,1.221,2.727,2.727  C35.882,25.861,34.661,27.082,33.156,27.082z M35.882,18.667h-5.333c0-2.712-2.206-4.918-4.918-4.918s-4.918,2.206-4.918,4.918H20  H4.118c0,0,0-5.6,0-7.911s2.461-4.978,5.453-4.978s10.429,0,10.429,0s7.438,0,10.429,0s5.453,2.667,5.453,4.978  C35.882,13.066,35.882,18.667,35.882,18.667z"></path><path d="M69.578,5C66.245,5,63,5,63,5s-3.245,0-6.578,0C52.51,5,48.6,8.289,48.6,12.067c0,3.333,0,18.8,0,18.8h2.488V35h4.311  v-4.133H63h7.601V35h4.311v-4.133H77.4c0,0,0-15.467,0-18.8C77.4,8.289,73.49,5,69.578,5z M56.355,6.2H63h6.645v2.066H63h-6.645V6.2  z M53.133,25.312c-1.129,0-2.045-0.916-2.045-2.045s0.916-2.045,2.045-2.045c1.129,0,2.045,0.916,2.045,2.045  C55.178,24.396,54.262,25.312,53.133,25.312z M64.601,19c0-1.446,1.176-2.622,2.622-2.622s2.622,1.176,2.622,2.622H64.601z   M72.867,25.312c-1.129,0-2.045-0.916-2.045-2.045s0.916-2.045,2.045-2.045s2.045,0.916,2.045,2.045  C74.912,24.396,73.996,25.312,72.867,25.312z M74.912,19h-4c0-2.034-1.654-3.688-3.689-3.688c-2.034,0-3.688,1.654-3.688,3.688H63  H51.088c0,0,0-4.2,0-5.933s1.846-3.733,4.09-3.733s7.822,0,7.822,0s5.578,0,7.822,0s4.09,2,4.09,3.733S74.912,19,74.912,19z"></path><path d="M98.385,10C96.163,10,94,10,94,10s-2.163,0-4.385,0c-2.608,0-5.215,2.192-5.215,4.711c0,2.222,0,12.533,0,12.533h1.659V30  h2.874v-2.755H94h5.067V30h2.874v-2.755h1.659c0,0,0-10.312,0-12.533C103.6,12.192,100.993,10,98.385,10z M89.57,10.8H94h4.43v1.377  H94h-4.43V10.8z M87.422,23.541c-0.753,0-1.363-0.61-1.363-1.363c0-0.752,0.61-1.363,1.363-1.363c0.752,0,1.363,0.611,1.363,1.363  C88.786,22.931,88.175,23.541,87.422,23.541z M95.067,19.333c0-0.964,0.784-1.748,1.748-1.748s1.748,0.784,1.748,1.748H95.067z   M100.578,23.541c-0.753,0-1.363-0.61-1.363-1.363c0-0.752,0.61-1.363,1.363-1.363s1.363,0.611,1.363,1.363  C101.941,22.931,101.331,23.541,100.578,23.541z M101.941,19.333h-2.667c0-1.356-1.103-2.459-2.459-2.459s-2.459,1.103-2.459,2.459  H94h-7.941c0,0,0-2.8,0-3.956s1.23-2.489,2.727-2.489c1.496,0,5.214,0,5.214,0s3.719,0,5.214,0c1.496,0,2.727,1.333,2.727,2.489  C101.941,16.533,101.941,19.333,101.941,19.333z"></path></svg>