<svg xmlns="http://www.w3.org/2000/svg" xmlns:xlink="http://www.w3.org/1999/xlink" viewBox="0 0 138 219" version="1.1" baseProfile="full" x="0px" y="0px"><g transform="scale(1,-1) translate(0,-219)"><path d="M 36.314977 11.513433 C 41.344456 16.542913 42.771040 24.049828 40.097798 30.511039 C 39.581342 31.759309 40.174595 33.189900 41.422864 33.706356 C 42.671133 34.222811 44.101725 33.629558 44.618180 32.381289 C 48.041216 24.107830 46.214329 14.494449 39.774145 8.054265 C 38.818922 7.099042 37.270200 7.099042 36.314977 8.054265 C 35.359754 9.009488 35.359754 10.558210 36.314977 11.513433 Z M 34.801640 37.512203 C 28.439533 42.557131 19.367925 42.516731 13.050138 37.409208 C 11.999607 36.559922 10.459501 36.723062 9.610215 37.773593 C 8.760928 38.824124 8.924069 40.364230 9.974600 41.213516 C 18.073269 47.760768 29.685525 47.812482 37.841179 41.345334 C 38.899669 40.505989 39.077321 38.967489 38.237975 37.908999 C 37.398630 36.850509 35.860130 36.672857 34.801640 37.512203 Z M 9.149262 32.987152 C 4.948368 26.187431 5.914408 17.301968 11.624314 11.554690 C 14.553392 8.625500 18.285464 6.883095 22.279869 6.491883 C 23.624325 6.360207 24.607478 5.163565 24.475802 3.819108 C 24.344126 2.474651 23.147484 1.491499 21.803027 1.623175 C 16.689297 2.124014 11.900956 4.359562 8.159475 8.101210 C 0.840624 15.467945 -0.396212 26.844149 4.987447 35.558337 C 5.697460 36.707591 7.204694 37.063665 8.353947 36.353652 C 9.503200 35.643639 9.859275 34.136406 9.149262 32.987152 Z M 29.494962 7.295868 C 32.013788 8.131558 34.315203 9.535031 36.245775 11.444609 C 37.206206 12.394595 38.754905 12.386129 39.704892 11.425698 C 40.654878 10.465267 40.646412 8.916568 39.685981 7.966581 C 37.217203 5.524650 34.264750 3.724155 31.035448 2.652744 C 29.753285 2.227351 28.369037 2.921900 27.943643 4.204063 C 27.518250 5.486227 28.212799 6.870475 29.494962 7.295868 Z" transform="scale(3.000000,3.000000) translate(-1.000000,-1.000000)" opacity="1.000000"></path><path d="M 27.864035 16.838202 C 27.864035 22.843653 22.995656 27.712033 16.990205 27.712033 C 16.288837 27.712033 15.597272 27.645951 14.921219 27.515901 C 13.594651 27.260716 12.312387 28.129242 12.057201 29.455810 C 11.802015 30.782378 12.670542 32.064643 13.997110 32.319829 C 14.977321 32.508387 15.978306 32.604036 16.990205 32.604036 C 25.697434 32.604036 32.756039 25.545432 32.756039 16.838202 C 32.756039 15.487313 31.660926 14.392201 30.310037 14.392201 C 28.959148 14.392201 27.864035 15.487313 27.864035 16.838202 Z M 8.140471 23.158390 C 6.830588 21.328253 6.116375 19.140156 6.116375 16.838202 C 6.116375 11.563705 9.899903 7.074441 15.026452 6.140800 C 16.355481 5.898759 17.236659 4.625155 16.994618 3.296126 C 16.752577 1.967097 15.478973 1.085919 14.149944 1.327960 C 6.707947 2.683287 1.224372 9.189707 1.224372 16.838202 C 1.224372 20.169871 2.262970 23.351768 4.162401 26.005610 C 4.948639 27.104123 6.476532 27.357273 7.575045 26.571035 C 8.673559 25.784797 8.926708 24.256904 8.140471 23.158390 Z M 20.450120 6.525693 C 24.829665 7.994307 27.847089 12.105235 27.863963 16.798073 C 27.868821 18.148953 28.967864 19.240121 30.318744 19.235263 C 31.669625 19.230406 32.760792 18.131363 32.755935 16.780482 C 32.731468 9.976262 28.357891 4.017715 22.005460 1.887524 C 20.724664 1.458029 19.338200 2.148144 18.908705 3.428939 C 18.479210 4.709734 19.169325 6.096198 20.450120 6.525693 Z" transform="scale(3.000000,3.000000) translate(6.000000,6.000000)" opacity="1.000000"></path><path d="M 15.608151 10.838203 C 15.608151 13.388624 13.540627 15.456149 10.990206 15.456149 C 8.439785 15.456149 6.372260 13.388624 6.372260 10.838203 C 6.372260 10.554189 6.397610 10.274628 6.447477 10.001266 C 6.689909 8.672308 5.809106 7.398445 4.480148 7.156013 C 3.151190 6.913581 1.877327 7.794384 1.634895 9.123342 C 1.532250 9.686021 1.480257 10.259408 1.480257 10.838203 C 1.480257 16.090403 5.738006 20.348152 10.990206 20.348152 C 16.242405 20.348152 20.500154 16.090403 20.500154 10.838203 C 20.500154 9.487314 19.405042 8.392202 18.054153 8.392202 C 16.703264 8.392202 15.608151 9.487314 15.608151 10.838203 Z M 11.158010 6.223220 C 13.634592 6.310852 15.606345 8.347982 15.608150 10.834739 C 15.609131 12.185628 16.705038 13.279945 18.055927 13.278964 C 19.406816 13.277983 20.501133 12.182076 20.500152 10.831187 C 20.496433 5.709159 16.436822 1.514942 11.331002 1.334276 C 9.980957 1.286506 8.847805 2.342208 8.800034 3.692252 C 8.752264 5.042296 9.807965 6.175449 11.158010 6.223220 Z" transform="scale(3.000000,3.000000) translate(12.000000,12.000000)" opacity="1.000000"></path><path d="M 6.875264 3.838203 C 6.875264 5.431577 5.583579 6.723263 3.990204 6.723263 C 2.396830 6.723263 1.105144 5.431577 1.105144 3.838203 C 1.105144 2.244828 2.396830 0.953143 3.990204 0.953143 C 5.583579 0.953143 6.875264 2.244828 6.875264 3.838203 Z" transform="scale(3.000000,3.000000) translate(18.999999,18.999999)" opacity="1.000000"></path><path d="M 23.720716 3.769734 L 23.720716 23.649603 L 23.707160 24.091584 L 26.152838 24.161123 L 23.715069 23.952654 L 23.671902 24.457438 L 26.109671 24.665907 L 23.687602 24.319842 L 23.616526 24.817296 L 26.038595 25.163361 L 23.639823 24.681626 L 23.541521 25.171115 L 25.940293 25.652850 L 23.572071 25.038276 L 23.447272 25.519179 L 25.815495 26.133753 L 23.484778 25.389482 L 23.334151 25.861178 L 25.664867 26.605449 L 23.378138 25.735365 L 23.202411 26.197204 L 25.489141 27.067288 L 23.252448 26.075632 L 23.052320 26.527022 L 25.289013 27.518678 L 23.107982 26.409948 L 22.884152 26.850254 L 25.065183 27.958984 L 22.945001 26.737916 L 22.698168 27.166502 L 24.818349 28.387570 L 22.763705 27.059182 L 22.494581 27.475441 L 24.549226 28.803829 L 22.564504 27.373074 L 22.273774 27.776371 L 24.258495 29.207126 L 22.347643 27.679114 L 22.036019 28.068814 L 23.946872 29.596826 L 22.113445 27.976725 L 21.781628 28.352235 L 23.615054 29.972336 L 21.862447 28.265131 L 21.511134 28.625787 L 23.263740 30.332992 L 21.594847 28.543866 L 21.224767 28.889076 L 22.893660 30.678202 L 21.311381 28.812038 L 20.923202 29.141166 L 22.505481 31.007330 L 21.012403 29.069059 L 20.606839 29.381471 L 22.099918 31.319742 L 20.698366 29.314292 L 20.276131 29.609379 L 21.677683 31.614830 L 20.369978 29.546960 L 19.931755 29.824089 L 21.239461 31.891958 L 20.027667 29.766462 L 19.574171 30.025011 L 20.785965 32.150507 L 19.672022 29.972134 L 19.203966 30.211481 L 20.317909 32.389854 L 19.303773 30.163263 L 18.821825 30.382774 L 19.835960 32.609365 L 18.923280 30.339300 L 18.428184 30.538354 L 19.340865 32.808418 L 18.531297 30.499570 L 18.023722 30.677545 L 18.833289 32.986393 L 18.128289 30.643499 L 17.608948 30.799774 L 18.313948 33.142668 L 17.714898 30.770471 L 17.184505 30.904411 L 17.783555 33.276608 L 17.291604 30.879910 L 16.750842 30.990907 L 17.242793 33.387606 L 16.859067 30.971217 L 16.308651 31.058624 L 16.692376 33.475012 L 16.417654 31.043818 L 15.858281 31.107026 L 16.133003 33.538221 L 15.967912 31.097130 L 15.400281 31.135519 L 15.565372 33.576610 L 15.510366 31.130561 L 14.935191 31.143496 L 14.990197 33.589544 L 15.045203 31.143496 L 14.470029 31.130561 L 14.415023 33.576610 L 14.580114 31.135519 L 14.012483 31.097130 L 13.847392 33.538221 L 14.122114 31.107026 L 13.562741 31.043818 L 13.288019 33.475012 L 13.671744 31.058624 L 13.121327 30.971217 L 12.737602 33.387606 L 13.229553 30.990907 L 12.688791 30.879910 L 12.196840 33.276608 L 12.795890 30.904411 L 12.265497 30.770471 L 11.666447 33.142668 L 12.371447 30.799774 L 11.852105 30.643499 L 11.147106 32.986393 L 11.956673 30.677545 L 11.449097 30.499570 L 10.639530 32.808418 L 11.552210 30.538354 L 11.057115 30.339300 L 10.144435 32.609365 L 11.158570 30.382774 L 10.676622 30.163263 L 9.662486 32.389854 L 10.776429 30.211481 L 10.308373 29.972134 L 9.194430 32.150507 L 10.406224 30.025011 L 9.952728 29.766462 L 8.740934 31.891958 L 10.048640 29.824089 L 9.610417 29.546960 L 8.302712 31.614830 L 9.704263 29.609379 L 9.282029 29.314292 L 7.880477 31.319742 L 9.373556 29.381471 L 8.967992 29.069059 L 7.474913 31.007330 L 9.057193 29.141166 L 8.669014 28.812038 L 7.086734 30.678202 L 8.755628 28.889076 L 8.385548 28.543866 L 6.716654 30.332992 L 8.469261 28.625787 L 8.117947 28.265131 L 6.365341 29.972336 L 8.198767 28.352235 L 7.866949 27.976725 L 6.033523 29.596826 L 7.944376 28.068814 L 7.632752 27.679114 L 5.721900 29.207126 L 7.706657 27.776421 L 7.415942 27.373124 L 5.431185 28.803829 L 7.485794 27.475387 L 7.216655 27.059128 L 5.162045 28.387570 L 7.282227 27.166502 L 7.035393 26.737916 L 4.915212 27.958984 L 7.096242 26.850254 L 6.872412 26.409948 L 4.691382 27.518678 L 6.928075 26.527022 L 6.727947 26.075632 L 4.491254 27.067288 L 6.777984 26.197204 L 6.602257 25.735365 L 4.315527 26.605449 L 6.646244 25.861178 L 6.495616 25.389482 L 4.164900 26.133753 L 6.533122 25.519179 L 6.408324 25.038276 L 4.040102 25.652850 L 6.438874 25.171115 L 6.340572 24.681626 L 3.941800 25.163361 L 6.363869 24.817296 L 6.292792 24.319842 L 3.870724 24.665907 L 6.308493 24.457438 L 6.265326 23.952654 L 3.827556 24.161123 L 6.273237 24.091658 L 6.258708 23.580138 L 6.259694 3.769734 C 6.259694 2.418477 5.164284 1.323067 3.813028 1.323067 C 2.461771 1.323067 1.366361 2.418477 1.366361 3.769734 L 1.366361 23.649603 L 1.381876 24.230588 L 1.389787 24.369592 L 1.432954 24.874376 L 1.448655 25.011971 L 1.519731 25.509425 L 1.543027 25.645096 L 1.641329 26.134585 L 1.671879 26.267424 L 1.796678 26.748327 L 1.834184 26.878024 L 1.984811 27.349720 L 2.028798 27.475533 L 2.204525 27.937372 L 2.254561 28.058945 L 2.454689 28.510335 L 2.510351 28.627409 L 2.734181 29.067714 L 2.795030 29.180052 L 3.041864 29.608638 L 3.107436 29.716012 L 3.376575 30.132271 L 3.446427 30.234533 L 3.737142 30.637830 L 3.811047 30.735138 L 4.122670 31.124838 L 4.200097 31.216927 L 4.531915 31.592436 L 4.612734 31.679540 L 4.964048 32.040197 L 5.047761 32.122118 L 5.417841 32.467328 L 5.504455 32.544366 L 5.892634 32.873495 L 5.981835 32.945601 L 6.387399 33.258013 L 6.478925 33.325192 L 6.901160 33.620280 L 6.995006 33.682699 L 7.433228 33.959828 L 7.529140 34.017454 L 7.982636 34.276003 L 8.080488 34.328880 L 8.548544 34.568227 L 8.648351 34.616445 L 9.130299 34.835956 L 9.231754 34.879429 L 9.726850 35.078483 L 9.829963 35.117266 L 10.337538 35.295241 L 10.442106 35.329287 L 10.961447 35.485562 L 11.067397 35.514864 L 11.597790 35.648804 L 11.704889 35.673306 L 12.245651 35.784304 L 12.353877 35.803994 L 12.904294 35.891401 L 13.013297 35.906207 L 13.572670 35.969415 L 13.682301 35.979311 L 14.249932 36.017700 L 14.360017 36.022658 L 14.935191 36.035592 L 15.045203 36.035592 L 15.620378 36.022658 L 15.730463 36.017700 L 16.298094 35.979311 L 16.407725 35.969415 L 16.967098 35.906207 L 17.076101 35.891401 L 17.626518 35.803994 L 17.734743 35.784304 L 18.275505 35.673306 L 18.382605 35.648804 L 18.912998 35.514864 L 19.018947 35.485562 L 19.538289 35.329287 L 19.642856 35.295241 L 20.150432 35.117266 L 20.253545 35.078483 L 20.748640 34.879429 L 20.850096 34.835956 L 21.332044 34.616445 L 21.431851 34.568227 L 21.899907 34.328880 L 21.997758 34.276003 L 22.451255 34.017454 L 22.547167 33.959828 L 22.985389 33.682699 L 23.079235 33.620280 L 23.501470 33.325192 L 23.592996 33.258013 L 23.998560 32.945601 L 24.087761 32.873495 L 24.475940 32.544366 L 24.562554 32.467328 L 24.932634 32.122118 L 25.016347 32.040197 L 25.367660 31.679540 L 25.448480 31.592436 L 25.780298 31.216927 L 25.857724 31.124838 L 26.169348 30.735138 L 26.243216 30.637881 L 26.533947 30.234584 L 26.603870 30.132217 L 26.872994 29.715958 L 26.938531 29.608638 L 27.185365 29.180052 L 27.246214 29.067714 L 27.470044 28.627409 L 27.525706 28.510335 L 27.725834 28.058945 L 27.775870 27.937372 L 27.951597 27.475533 L 27.995584 27.349720 L 28.146211 26.878024 L 28.183717 26.748327 L 28.308515 26.267424 L 28.339065 26.134585 L 28.437367 25.645096 L 28.460664 25.509425 L 28.531740 25.011971 L 28.547440 24.874376 L 28.590608 24.369592 L 28.598517 24.230662 L 28.613061 23.719142 L 28.614049 3.769734 C 28.614049 2.418477 27.518639 1.323067 26.167383 1.323067 C 24.816126 1.323067 23.720716 2.418477 23.720716 3.769734 Z" transform="scale(3.000000,3.000000) translate(8.000000,35.999999)" opacity="1.000000"></path></g></svg>